<svg width="35" height="35" viewBox="0 0 35 35" fill="none" xmlns="http://www.w3.org/2000/svg">
<path d="M26.4466 7.65625C25.8423 5.73555 23.7953 4.66838 21.8746 5.27268C20.7385 5.63015 19.8485 6.5201 19.4911 7.65625H5.10425V9.84375H19.4911C20.0954 11.7644 22.1423 12.8316 24.063 12.2273C25.1992 11.8698 26.0891 10.9799 26.4466 9.84375H29.8959V7.65625H26.4466ZM22.9688 10.2083C22.1634 10.2083 21.5105 9.5554 21.5105 8.75C21.5105 7.9446 22.1634 7.29167 22.9688 7.29167C23.7742 7.29167 24.4272 7.9446 24.4272 8.75C24.4272 9.5554 23.7742 10.2083 22.9688 10.2083Z" fill="#26415C"/>
<path d="M21.5105 22.6042C19.919 22.6062 18.5121 23.6386 18.0327 25.1562H5.10425V27.3437H18.0327C18.637 29.2644 20.684 30.3316 22.6047 29.7273C23.7409 29.3698 24.6308 28.4799 24.9883 27.3437H29.8959V25.1562H24.9883C24.5089 23.6386 23.102 22.6062 21.5105 22.6042ZM21.5105 27.7083C20.7051 27.7083 20.0522 27.0554 20.0522 26.25C20.0522 25.4446 20.7051 24.7917 21.5105 24.7917C22.3159 24.7917 22.9688 25.4446 22.9688 26.25C22.9688 27.0554 22.3159 27.7083 21.5105 27.7083Z" fill="#26415C"/>
<path d="M12.3959 13.8542C10.8044 13.8562 9.39751 14.8886 8.91815 16.4062H5.10425V18.5937H8.91815C9.52245 20.5144 11.5694 21.5816 13.4901 20.9773C14.6263 20.6198 15.5162 19.7299 15.8737 18.5937H29.8959V16.4062H15.8737C15.3943 14.8886 13.9874 13.8562 12.3959 13.8542ZM12.3959 18.9583C11.5905 18.9583 10.9376 18.3054 10.9376 17.5C10.9376 16.6946 11.5905 16.0417 12.3959 16.0417C13.2013 16.0417 13.8542 16.6946 13.8542 17.5C13.8542 18.3054 13.2013 18.9583 12.3959 18.9583Z" fill="#26415C"/>
</svg>
